<svg xmlns="http://www.w3.org/2000/svg" width="106" height="40" fill="none" viewBox="0 0 106 40"><defs><clipPath id="spotify-dark__a"><path fill="#fff" d="M8 8h24v24H8z"/></clipPath></defs><rect width="105" height="39" x=".5" y=".5" fill="#000" rx="4.5"/><rect width="105" height="39" x=".5" y=".5" stroke="#A6A6A6" rx="4.5"/><g fill-rule="evenodd" clip-path="url(#spotify-dark__a)" clip-rule="evenodd"><path fill="#1ED760" d="M20 32.002c6.628 0 12.002-5.374 12.002-12.002 0-6.628-5.374-12-12.002-12-6.628-.001-12 5.372-12 12s5.373 12.002 12.001 12.002Z"/><path fill="#181413" d="M13.6 22.942c4.508-1.03 8.455-.618 11.656 1.338a.749.749 0 0 1-.78 1.278c-2.781-1.7-6.303-2.126-10.543-1.157a.749.749 0 1 1-.334-1.46Zm-.417-3.782c4.329-1.313 9.776-.682 13.482 1.595a.935.935 0 1 1-.98 1.593c-3.223-1.982-8.113-2.566-11.959-1.398a.935.935 0 1 1-.543-1.79Zm7.085-4.731c2.798.224 5.7.928 7.977 2.28a1.121 1.121 0 0 1-1.145 1.928c-1.885-1.12-4.42-1.766-7.011-1.973-2.587-.207-5.112.032-6.933.585a1.121 1.121 0 0 1-.651-2.146c2.146-.651 4.961-.899 7.763-.674Z"/></g><path fill="#fff" d="M39.749 14.5V8.318h.748v5.518h2.874v.664h-3.622Zm4.684 0V9.864h.713V14.5h-.713Zm.362-5.41a.506.506 0 0 1-.359-.141.456.456 0 0 1-.148-.341c0-.133.05-.247.148-.341.1-.095.22-.142.36-.142.138 0 .257.047.356.142.1.094.15.208.15.341 0 .133-.05.246-.15.341a.496.496 0 0 1-.357.142Zm4.94 1.812-.64.181c-.04-.107-.1-.21-.179-.31a.865.865 0 0 0-.313-.254 1.14 1.14 0 0 0-.51-.1c-.284 0-.52.065-.71.196-.187.129-.28.293-.28.492a.51.51 0 0 0 .192.42c.13.102.33.188.604.256l.688.17c.415.1.724.254.927.461.203.206.305.47.305.794 0 .266-.077.503-.23.713-.15.209-.362.374-.633.495a2.33 2.33 0 0 1-.948.18c-.473 0-.864-.102-1.174-.307-.31-.205-.506-.505-.589-.9l.676-.169c.065.25.186.437.365.562.182.124.418.187.71.187.332 0 .595-.07.79-.211.198-.143.296-.314.296-.514a.54.54 0 0 0-.169-.404c-.112-.11-.285-.193-.519-.248l-.773-.18c-.424-.101-.736-.257-.935-.469a1.133 1.133 0 0 1-.296-.8c0-.261.073-.493.22-.694a1.5 1.5 0 0 1 .607-.474 2.13 2.13 0 0 1 .875-.172c.46 0 .82.1 1.081.302.264.201.45.467.561.797Zm3.173-1.038v.603h-2.403v-.603h2.403Zm-1.703-1.111h.712v4.419c0 .201.03.352.088.453.06.098.137.165.23.199a.92.92 0 0 0 .298.048c.079 0 .143-.004.194-.012l.12-.024.145.64a1.491 1.491 0 0 1-.531.085c-.201 0-.399-.044-.592-.13a1.177 1.177 0 0 1-.477-.396c-.125-.177-.187-.4-.187-.67V8.753Zm4.668 5.844c-.447 0-.832-.099-1.156-.296a1.99 1.99 0 0 1-.745-.833c-.174-.358-.26-.775-.26-1.25s.086-.893.26-1.256c.175-.364.418-.648.73-.85.314-.206.68-.309 1.099-.309.241 0 .48.04.715.121.236.08.45.211.643.392.193.18.347.417.462.713.115.296.172.66.172 1.092v.302h-3.574v-.616h2.85a1.52 1.52 0 0 0-.157-.7 1.183 1.183 0 0 0-.441-.486 1.234 1.234 0 0 0-.67-.178c-.284 0-.53.07-.737.212a1.39 1.39 0 0 0-.474.543c-.11.223-.166.463-.166.718v.41c0 .35.06.648.181.891.123.242.293.426.51.553.218.124.47.187.758.187.187 0 .356-.027.507-.079.153-.054.285-.135.396-.241.11-.109.196-.244.256-.405l.689.193a1.526 1.526 0 0 1-.366.616 1.78 1.78 0 0 1-.634.41 2.35 2.35 0 0 1-.848.146Zm3.716-2.886V14.5h-.712V9.864h.688v.724h.06a1.33 1.33 0 0 1 .495-.567c.222-.145.507-.218.858-.218.313 0 .588.065.823.193.236.127.42.32.55.58.13.258.196.584.196.978V14.5h-.712v-2.898c0-.364-.095-.648-.284-.85-.19-.206-.449-.309-.779-.309-.227 0-.43.05-.61.148a1.058 1.058 0 0 0-.42.432 1.43 1.43 0 0 0-.153.688Zm8.534 2.886c-.419 0-.786-.1-1.102-.3a2.018 2.018 0 0 1-.736-.835c-.175-.358-.263-.777-.263-1.256 0-.483.088-.905.263-1.265.177-.36.422-.64.736-.839.316-.2.683-.299 1.102-.299.418 0 .785.1 1.099.3.316.198.561.478.736.838.177.36.266.782.266 1.265 0 .479-.089.898-.266 1.256-.175.358-.42.636-.736.836a2.01 2.01 0 0 1-1.1.299Zm0-.64c.318 0 .58-.082.785-.245a1.44 1.44 0 0 0 .456-.643 2.47 2.47 0 0 0 .147-.863c0-.31-.049-.599-.147-.866a1.46 1.46 0 0 0-.456-.65c-.206-.164-.467-.247-.785-.247s-.58.083-.785.248a1.46 1.46 0 0 0-.456.649 2.487 2.487 0 0 0-.148.866c0 .31.05.598.148.863.099.266.25.48.456.643.205.163.467.245.785.245Zm3.9-2.246V14.5h-.712V9.864H72v.724h.06c.11-.235.274-.424.496-.567.221-.145.507-.218.857-.218.314 0 .589.065.824.193a1.3 1.3 0 0 1 .55.58c.13.258.196.584.196.978V14.5h-.713v-2.898c0-.364-.094-.648-.284-.85-.189-.206-.448-.309-.778-.309-.228 0-.43.05-.61.148a1.059 1.059 0 0 0-.42.432 1.43 1.43 0 0 0-.154.688Zm-25.522 9.243a1.95 1.95 0 0 0-.907-1.466c-.53-.348-1.18-.522-1.951-.522-.564 0-1.057.091-1.48.273-.418.183-.745.433-.981.752a1.802 1.802 0 0 0-.348 1.088c0 .34.08.632.242.876.166.24.377.441.634.603.257.157.526.288.808.391.282.1.54.18.777.243l1.292.348c.332.087.7.207 1.106.36.41.154.802.363 1.175.628.377.26.688.597.932 1.007.245.41.367.913.367 1.51a3.35 3.35 0 0 1-.54 1.864c-.357.555-.88.997-1.567 1.324-.683.327-1.514.49-2.492.49-.911 0-1.7-.146-2.367-.44-.663-.295-1.185-.705-1.567-1.231-.377-.526-.59-1.137-.64-1.833h1.591c.042.48.203.878.485 1.193.286.31.646.543 1.081.696.44.15.912.224 1.417.224a4.17 4.17 0 0 0 1.585-.286c.468-.195.839-.464 1.112-.808a1.91 1.91 0 0 0 .41-1.218c0-.423-.118-.767-.354-1.032a2.6 2.6 0 0 0-.932-.646 9.782 9.782 0 0 0-1.25-.435l-1.565-.448c-.994-.285-1.782-.693-2.362-1.224-.58-.53-.87-1.224-.87-2.082 0-.712.193-1.334.578-1.864.39-.534.912-.949 1.566-1.243.66-.298 1.394-.447 2.207-.447.82 0 1.549.147 2.187.44.638.291 1.143.689 1.516 1.194.377.506.576 1.08.597 1.721H46.5Zm3.751 13.126V20.955h1.417v1.516h.174c.108-.166.257-.377.447-.634.195-.261.473-.493.833-.696.365-.207.858-.31 1.48-.31.803 0 1.511.2 2.124.602.614.402 1.092.972 1.436 1.709.344.738.516 1.608.516 2.61 0 1.011-.172 1.887-.516 2.629-.344.737-.82 1.309-1.43 1.715-.608.402-1.31.603-2.106.603-.613 0-1.104-.102-1.473-.305-.369-.207-.652-.44-.851-.702a9.38 9.38 0 0 1-.46-.659h-.124v5.047h-1.467Zm1.442-8.353c0 .721.105 1.357.317 1.908.211.547.52.976.926 1.287.406.306.903.46 1.491.46.613 0 1.125-.162 1.535-.485.414-.328.725-.767.932-1.318a5.17 5.17 0 0 0 .317-1.852c0-.67-.103-1.276-.31-1.814-.203-.543-.512-.972-.927-1.287-.41-.319-.925-.478-1.547-.478-.596 0-1.098.15-1.504.453-.406.299-.712.717-.92 1.256-.207.534-.31 1.158-.31 1.87Zm12.85 4.972c-.862 0-1.618-.205-2.268-.615-.647-.41-1.152-.984-1.517-1.722-.36-.737-.54-1.599-.54-2.585 0-.994.18-1.862.54-2.604.365-.741.87-1.317 1.517-1.727.65-.41 1.406-.616 2.268-.616.862 0 1.616.205 2.262.616.65.41 1.156.985 1.516 1.727.365.742.547 1.61.547 2.604 0 .986-.182 1.848-.547 2.585-.36.738-.866 1.312-1.516 1.722-.646.41-1.4.615-2.262.615Zm0-1.318c.654 0 1.193-.167 1.616-.503.422-.336.735-.777.938-1.324a5.063 5.063 0 0 0 .305-1.777 5.12 5.12 0 0 0-.305-1.784 3.007 3.007 0 0 0-.938-1.336c-.423-.34-.962-.51-1.616-.51-.655 0-1.193.17-1.616.51-.422.34-.735.785-.938 1.336a5.12 5.12 0 0 0-.305 1.784c0 .638.102 1.23.305 1.777.203.547.515.988.938 1.324.423.336.961.503 1.616.503Zm10.465-8.427v1.243h-4.947v-1.242h4.947Zm-3.505-2.286h1.467v9.098c0 .414.06.725.18.932.124.203.282.34.472.41.195.066.4.1.616.1.161 0 .294-.009.397-.025l.249-.05.298 1.317c-.1.038-.238.075-.416.112a3.062 3.062 0 0 1-.677.062 2.96 2.96 0 0 1-1.219-.267 2.42 2.42 0 0 1-.981-.814c-.257-.365-.386-.825-.386-1.38v-9.495ZM76.965 30.5v-9.546h1.467V30.5h-1.467Zm.746-11.136c-.286 0-.532-.098-.74-.292a.939.939 0 0 1-.304-.703.94.94 0 0 1 .305-.702 1.04 1.04 0 0 1 .74-.292c.285 0 .53.097.732.292a.93.93 0 0 1 .311.702.93.93 0 0 1-.31.703 1.021 1.021 0 0 1-.734.292Zm7.408 1.59v1.243h-5.146v-1.242h5.146ZM81.514 30.5V19.637c0-.547.129-1.003.386-1.367.257-.365.59-.638 1-.82.41-.183.843-.274 1.3-.274.36 0 .654.03.882.087.228.058.397.112.51.162l-.423 1.267a7.008 7.008 0 0 0-.311-.093 1.883 1.883 0 0 0-.51-.056c-.484 0-.835.123-1.05.367-.211.244-.317.603-.317 1.075V30.5h-1.466Zm6.355 3.58a3.17 3.17 0 0 1-.665-.063 1.753 1.753 0 0 1-.404-.111l.373-1.293c.356.091.671.124.945.1.273-.026.515-.148.727-.367.215-.216.412-.566.59-1.05l.273-.746-3.53-9.596h1.591l2.635 7.607h.1l2.635-7.607h1.59l-4.051 10.938c-.182.493-.408.901-.677 1.224-.27.328-.583.57-.939.727-.352.158-.75.236-1.193.236Z"/></svg>