<svg xmlns="http://www.w3.org/2000/svg" width="118" height="40" fill="none" viewBox="0 0 118 40"><rect width="117" height="39" x=".5" y=".5" fill="#000" rx="4.5"/><rect width="117" height="39" x=".5" y=".5" stroke="#A6A6A6" rx="4.5"/><path fill="#FF0100" d="M31.498 14.186a3.016 3.016 0 0 0-2.122-2.136c-1.871-.505-9.376-.505-9.376-.505s-7.505 0-9.377.505a3.018 3.018 0 0 0-2.121 2.136C8 16.07 8 20 8 20s0 3.93.502 5.814a3.016 3.016 0 0 0 2.122 2.136c1.871.505 9.376.505 9.376.505s7.505 0 9.377-.505a3.015 3.015 0 0 0 2.122-2.136C32 23.93 32 20 32 20s0-3.93-.502-5.814Z"/><path fill="#fff" d="M17.545 23.568v-7.136L23.818 20l-6.273 3.568ZM40.871 14.5l-1.69-6.182h.76l1.293 5.035h.06l1.316-5.035h.845l1.316 5.035h.06l1.293-5.035h.76l-1.69 6.182h-.773l-1.364-4.926h-.049L41.645 14.5h-.773Zm7.782.109c-.294 0-.56-.056-.8-.166a1.371 1.371 0 0 1-.57-.486 1.37 1.37 0 0 1-.212-.773c0-.266.053-.481.157-.646.105-.167.245-.298.42-.392a2.21 2.21 0 0 1 .58-.212c.213-.048.427-.086.642-.114.282-.037.51-.064.686-.082.177-.02.305-.053.386-.1.082-.046.124-.126.124-.241v-.024c0-.298-.082-.53-.245-.694-.16-.165-.405-.248-.733-.248-.34 0-.607.075-.8.224a1.32 1.32 0 0 0-.408.476l-.676-.241c.12-.282.282-.501.483-.658a1.81 1.81 0 0 1 .664-.332c.242-.065.48-.097.713-.097.148 0 .32.018.513.055.195.034.383.105.564.214.183.109.335.273.456.492.12.22.181.513.181.881V14.5h-.712v-.628h-.037c-.048.1-.128.208-.241.323a1.393 1.393 0 0 1-.45.293 1.74 1.74 0 0 1-.685.12Zm.109-.64c.281 0 .519-.056.712-.166a1.13 1.13 0 0 0 .592-.981v-.652c-.03.036-.097.07-.2.1-.1.027-.217.053-.35.075a16.015 16.015 0 0 1-.682.09 2.72 2.72 0 0 0-.519.118.895.895 0 0 0-.386.238c-.097.105-.145.248-.145.43 0 .247.091.434.274.56.185.125.42.188.704.188Zm5.333-4.105v.603h-2.403v-.603h2.403Zm-1.703-1.111h.712v4.419c0 .201.03.352.088.453.06.098.137.165.23.199a.92.92 0 0 0 .298.048c.079 0 .143-.004.194-.012l.12-.024.145.64a1.49 1.49 0 0 1-.531.085c-.201 0-.399-.044-.592-.13a1.177 1.177 0 0 1-.477-.396c-.124-.177-.187-.4-.187-.67V8.753ZM57 14.597c-.435 0-.81-.103-1.123-.308a2.006 2.006 0 0 1-.724-.848 2.873 2.873 0 0 1-.254-1.235c0-.47.087-.886.26-1.247.175-.362.418-.645.73-.848.314-.205.68-.308 1.099-.308.326 0 .62.06.881.181.262.121.476.29.643.508.167.217.27.47.311.76h-.712a1.105 1.105 0 0 0-.363-.561c-.185-.165-.434-.248-.748-.248-.278 0-.521.073-.73.218a1.41 1.41 0 0 0-.487.606c-.114.26-.172.565-.172.915 0 .358.057.67.17.935.114.266.275.472.482.62.21.146.455.22.737.22.185 0 .353-.033.504-.097a1.04 1.04 0 0 0 .607-.712h.712a1.65 1.65 0 0 1-.924 1.258c-.257.127-.557.19-.9.19Zm3.577-2.886V14.5h-.713V8.318h.713v2.27h.06c.109-.24.272-.43.49-.57.218-.143.51-.215.874-.215.316 0 .593.064.83.19.238.125.422.317.553.577.133.258.2.585.2.984V14.5h-.713v-2.898c0-.368-.096-.653-.287-.854-.19-.203-.452-.305-.788-.305-.233 0-.443.05-.628.148a1.08 1.08 0 0 0-.434.432 1.397 1.397 0 0 0-.157.688Zm8.584 2.886c-.419 0-.786-.1-1.102-.3a2.03 2.03 0 0 1-.737-.835c-.175-.358-.262-.777-.262-1.256 0-.483.087-.905.262-1.265.177-.36.423-.64.737-.839.316-.2.683-.299 1.102-.299a2 2 0 0 1 1.098.3c.316.198.562.478.737.838.177.36.265.782.265 1.265 0 .479-.088.898-.265 1.256-.175.358-.42.636-.737.836-.314.199-.68.299-1.099.299Zm0-.64c.317 0 .58-.082.784-.245a1.44 1.44 0 0 0 .456-.643c.099-.265.148-.553.148-.863 0-.31-.05-.599-.148-.866a1.46 1.46 0 0 0-.456-.65c-.205-.164-.466-.247-.784-.247s-.58.083-.785.248a1.46 1.46 0 0 0-.456.649 2.487 2.487 0 0 0-.148.866c0 .31.05.598.148.863.099.266.25.48.456.643.205.163.467.245.784.245Zm3.9-2.246V14.5h-.712V9.864h.688v.724h.06a1.33 1.33 0 0 1 .495-.567c.222-.145.508-.218.858-.218.313 0 .588.065.824.193.235.127.418.32.549.58.13.258.196.584.196.978V14.5h-.712v-2.898c0-.364-.095-.648-.284-.85-.189-.206-.449-.309-.779-.309-.227 0-.43.05-.61.148a1.058 1.058 0 0 0-.419.432 1.419 1.419 0 0 0-.154.688Zm-34.614 6.062h1.765l3.53 5.94h.15l3.53-5.94h1.764l-4.599 7.482V30.5h-1.54v-5.245l-4.6-7.482Zm14.811 12.926c-.861 0-1.618-.205-2.268-.615-.646-.41-1.152-.984-1.516-1.722-.36-.737-.541-1.599-.541-2.585 0-.994.18-1.862.54-2.604.365-.741.87-1.317 1.517-1.727.65-.41 1.407-.616 2.268-.616.862 0 1.616.205 2.262.616.65.41 1.156.985 1.517 1.727.364.742.547 1.61.547 2.604 0 .986-.183 1.848-.547 2.585-.36.738-.866 1.312-1.517 1.722-.646.41-1.4.615-2.262.615Zm0-1.318c.655 0 1.193-.167 1.616-.503.423-.336.735-.777.938-1.324a5.063 5.063 0 0 0 .305-1.777 5.12 5.12 0 0 0-.305-1.784 3.006 3.006 0 0 0-.938-1.336c-.423-.34-.961-.51-1.616-.51-.654 0-1.193.17-1.616.51-.422.34-.735.785-.938 1.336a5.12 5.12 0 0 0-.304 1.784c0 .638.101 1.23.304 1.777.203.547.516.988.938 1.324.423.336.962.503 1.616.503Zm12.33-2.784v-5.643h1.467V30.5h-1.467v-1.616h-.1a3.13 3.13 0 0 1-1.043 1.237c-.473.335-1.07.503-1.79.503-.597 0-1.127-.13-1.591-.391-.464-.265-.829-.663-1.094-1.193-.265-.535-.398-1.208-.398-2.02v-6.066h1.467v5.966c0 .696.195 1.252.584 1.666.394.414.895.621 1.504.621.365 0 .735-.093 1.112-.28.382-.186.7-.472.957-.857.261-.385.392-.876.392-1.473Zm2.517-7.457v-1.367h9.545v1.367h-4.002V30.5h-1.54V19.14h-4.003Zm16.192 7.457v-5.643h1.466V30.5h-1.466v-1.616h-.1a3.13 3.13 0 0 1-1.044 1.237c-.472.335-1.068.503-1.79.503-.596 0-1.126-.13-1.59-.391-.464-.265-.829-.663-1.094-1.193-.265-.535-.398-1.208-.398-2.02v-6.066h1.467v5.966c0 .696.195 1.252.584 1.666.394.414.895.621 1.504.621.365 0 .735-.093 1.112-.28.382-.186.7-.472.957-.857.261-.385.392-.876.392-1.473Zm4.102 3.903V17.773h1.466v4.698h.125c.107-.166.256-.377.447-.634.195-.261.472-.493.833-.696.364-.207.857-.31 1.479-.31.803 0 1.512.2 2.125.602.613.402 1.092.972 1.436 1.709.343.738.516 1.608.516 2.61 0 1.011-.172 1.887-.516 2.629-.344.737-.82 1.309-1.43 1.715-.609.402-1.31.603-2.106.603-.614 0-1.105-.102-1.473-.305-.369-.207-.653-.44-.852-.702a9.38 9.38 0 0 1-.46-.659h-.174V30.5H88.4Zm1.441-4.773c0 .721.106 1.357.317 1.908.212.547.52.976.926 1.287.406.306.903.46 1.492.46.613 0 1.125-.162 1.535-.485.414-.328.725-.767.932-1.318a5.17 5.17 0 0 0 .317-1.852c0-.67-.104-1.276-.31-1.814-.204-.543-.513-.972-.927-1.287-.41-.319-.926-.478-1.547-.478-.597 0-1.098.15-1.504.453-.406.299-.713.717-.92 1.256-.207.534-.31 1.158-.31 1.87Zm12.981 4.972c-.92 0-1.713-.203-2.38-.61a4.086 4.086 0 0 1-1.535-1.714c-.356-.738-.535-1.595-.535-2.573s.179-1.84.535-2.585c.36-.75.862-1.334 1.504-1.753.646-.422 1.4-.634 2.262-.634.497 0 .988.083 1.473.249.484.166.926.435 1.323.808.398.368.715.857.951 1.466.236.61.354 1.36.354 2.25v.621h-7.358v-1.267h5.867c0-.539-.108-1.02-.323-1.442a2.431 2.431 0 0 0-.908-1c-.389-.245-.849-.367-1.379-.367-.584 0-1.09.145-1.516.435a2.86 2.86 0 0 0-.976 1.118c-.228.46-.342.953-.342 1.48v.845c0 .72.124 1.332.373 1.833.253.497.603.876 1.05 1.137.448.257.968.385 1.56.385.385 0 .733-.053 1.044-.161.315-.112.586-.278.814-.497a2.26 2.26 0 0 0 .528-.833l1.417.398c-.149.48-.4.903-.752 1.267a3.67 3.67 0 0 1-1.305.846c-.518.198-1.1.298-1.746.298Z"/></svg>